<?xml version="1.0" standalone="no"?>
<!DOCTYPE svg PUBLIC "-//W3C//DTD SVG 20010904//EN"
 "http://www.w3.org/TR/2001/REC-SVG-20010904/DTD/svg10.dtd">
<svg version="1.0" xmlns="http://www.w3.org/2000/svg"
 width="959.000000pt" height="959.000000pt" viewBox="0 0 959.000000 959.000000"
 preserveAspectRatio="xMidYMid meet">
<metadata>
Created by potrace 1.14, written by Peter Selinger 2001-2017
</metadata>
<g transform="translate(0.000000,959.000000) scale(0.100000,-0.100000)"
fill="#000000" stroke="none">
<path d="M2190 9170 c-127 -8 -184 -25 -291 -88 -88 -52 -233 -200 -296 -303
-29 -46 -66 -99 -83 -118 -16 -18 -30 -40 -30 -49 0 -8 -9 -29 -19 -46 -28
-46 -126 -284 -139 -336 -6 -25 -13 -79 -16 -121 -3 -42 -10 -89 -16 -103 -5
-15 -10 -69 -10 -121 0 -97 23 -185 60 -230 9 -11 30 -41 47 -67 17 -26 54
-67 82 -90 63 -52 63 -54 -7 -228 -28 -69 -60 -156 -71 -195 -33 -109 -91
-288 -100 -305 -4 -8 -17 -20 -27 -25 -64 -34 -156 -176 -189 -295 -35 -122
-66 -214 -73 -219 -18 -12 -66 -132 -123 -306 -33 -99 -64 -189 -69 -200 -36
-77 -45 -383 -15 -500 21 -83 65 -165 107 -200 27 -23 36 -25 82 -19 28 4 60
14 71 23 175 147 187 163 216 276 10 39 34 129 54 200 19 72 40 158 45 193 6
34 16 78 24 97 8 19 20 69 27 112 6 43 21 110 33 148 18 62 24 70 45 70 18 0
27 -8 34 -29 5 -16 20 -45 33 -64 13 -19 29 -53 35 -76 5 -22 19 -63 29 -91
10 -27 24 -66 30 -85 7 -19 19 -51 26 -70 7 -19 20 -60 29 -90 9 -30 32 -86
50 -125 18 -38 37 -81 44 -95 6 -14 15 -32 20 -40 5 -8 23 -45 41 -82 18 -37
44 -75 58 -84 24 -16 24 -19 19 -93 -13 -161 -27 -269 -38 -297 -6 -16 -15
-69 -20 -119 -4 -49 -13 -133 -18 -185 -6 -52 -11 -262 -12 -465 -1 -430 7
-510 81 -805 5 -19 12 -60 16 -90 7 -60 55 -225 78 -268 7 -15 21 -52 31 -82
47 -147 129 -309 200 -395 61 -74 88 -114 119 -174 51 -98 148 -219 255 -316
36 -33 86 -82 111 -109 44 -48 194 -177 285 -246 92 -70 161 -120 210 -153 72
-49 280 -160 350 -187 33 -13 65 -27 71 -32 6 -4 36 -15 65 -24 61 -18 109
-49 109 -69 0 -8 -9 -43 -19 -77 -11 -35 -27 -108 -36 -163 -9 -55 -23 -124
-31 -154 -9 -30 -19 -122 -24 -205 -4 -89 -15 -179 -26 -218 -18 -67 -18 -68
2 -95 24 -32 92 -44 112 -20 18 21 52 279 63 467 6 95 16 180 24 200 7 19 16
53 19 75 3 22 11 67 18 100 12 57 15 60 45 63 17 2 44 -3 60 -11 15 -8 51 -19
78 -26 63 -14 138 -33 235 -58 41 -11 106 -23 143 -27 38 -4 119 -16 180 -27
88 -16 171 -22 387 -26 247 -5 289 -3 405 15 72 12 157 24 190 27 141 14 225
28 304 52 94 29 165 27 229 -6 52 -26 66 -72 97 -314 9 -78 24 -140 41 -180
14 -34 34 -82 45 -107 11 -27 18 -65 17 -95 -3 -65 40 -135 83 -135 32 0 99
68 99 101 0 12 -15 53 -34 93 -47 98 -82 211 -96 303 -6 43 -21 136 -32 207
-26 155 -25 156 83 156 55 0 77 5 124 30 31 17 102 48 156 70 55 22 107 44
117 50 9 5 64 27 122 49 58 21 145 60 194 85 48 25 94 46 101 46 7 0 33 16 58
35 25 19 48 35 52 35 3 0 23 11 45 25 22 14 47 25 56 25 60 0 96 26 261 189
278 275 462 478 463 513 0 7 77 127 142 222 60 87 105 170 113 208 4 18 20 57
36 85 16 29 29 63 29 76 0 13 11 46 25 73 14 27 25 65 25 85 0 20 7 53 15 72
8 20 15 51 15 69 1 18 8 51 16 73 9 22 22 72 30 110 23 111 43 165 63 165 9 0
43 -7 74 -15 34 -9 102 -15 161 -15 76 0 120 -5 166 -20 71 -23 116 -25 192
-9 70 15 108 38 108 65 0 44 -18 47 -147 28 -24 -3 -54 -3 -69 0 -22 6 -25 11
-19 34 4 15 12 34 20 42 19 22 27 88 17 141 -10 53 -80 143 -123 158 -31 11
-93 -8 -122 -37 -30 -30 -46 -110 -40 -194 5 -62 3 -77 -13 -96 l-19 -23 -50
67 c-101 135 -100 134 -99 189 1 29 7 69 14 90 9 29 10 50 1 94 -9 42 -9 104
-1 246 18 294 16 309 -45 525 -15 52 -30 136 -33 185 -4 50 -10 95 -14 100 -3
6 -12 58 -18 115 -13 116 -39 224 -65 263 -9 14 -23 47 -30 74 -7 26 -23 73
-34 103 -12 30 -21 61 -21 69 0 7 -22 59 -49 115 -27 55 -55 121 -62 146 -7
25 -30 72 -49 105 -20 33 -51 94 -70 135 -18 41 -42 86 -52 99 -10 13 -18 29
-18 35 0 6 -12 22 -27 36 -14 14 -68 75 -118 135 -51 61 -146 162 -211 226
-65 64 -161 164 -213 223 -52 58 -98 106 -102 106 -3 0 -35 27 -70 59 -74 69
-110 96 -196 145 -34 20 -75 47 -90 59 -15 13 -57 36 -93 52 -36 15 -78 39
-93 51 -16 13 -54 31 -85 39 -31 9 -86 25 -122 35 -36 10 -76 22 -90 26 -14 3
-65 24 -115 46 -211 95 -573 208 -667 208 -18 0 -73 9 -122 20 -83 19 -156 27
-413 49 -63 6 -163 6 -238 1 -71 -5 -213 -13 -315 -20 -152 -9 -210 -17 -325
-45 -130 -32 -290 -86 -356 -121 -15 -8 -47 -14 -69 -14 -27 0 -51 -7 -67 -20
-14 -11 -31 -20 -38 -20 -7 0 -30 -13 -52 -29 -22 -16 -57 -31 -79 -33 -36 -5
-86 -23 -192 -69 -26 -12 -66 -19 -101 -19 -53 0 -64 -4 -103 -35 -24 -19 -65
-48 -93 -65 -27 -17 -68 -43 -90 -60 -22 -16 -74 -50 -115 -76 -41 -26 -86
-58 -101 -71 -14 -13 -30 -23 -35 -23 -15 0 -286 -280 -389 -402 -91 -106
-116 -138 -205 -260 -53 -70 -198 -345 -232 -438 -11 -30 -54 -124 -95 -209
-42 -85 -79 -166 -84 -180 -4 -14 -15 -44 -23 -66 -8 -22 -15 -56 -16 -76 0
-43 -23 -68 -48 -52 -10 5 -26 34 -37 64 -11 30 -28 68 -36 84 -9 17 -24 54
-34 84 -10 30 -26 68 -36 85 -20 35 -65 149 -84 216 -8 25 -22 70 -33 100 -11
30 -23 77 -26 104 -4 32 -16 61 -34 84 -65 82 -69 91 -75 170 -7 84 5 141 42
202 26 43 26 67 1 105 -11 17 -20 40 -20 52 0 25 61 207 90 268 10 22 27 58
37 80 10 22 34 67 54 100 20 33 42 82 50 108 8 27 22 56 32 65 24 21 83 20
165 -3 43 -12 86 -16 153 -13 82 3 102 8 160 37 128 64 310 233 392 364 77
124 86 141 126 242 50 126 91 312 98 435 8 150 -15 264 -80 397 -63 130 -193
311 -242 338 -19 10 -35 21 -35 25 0 18 -142 56 -235 62 -33 2 -112 1 -175 -2z
m247 -94 c15 -8 44 -23 63 -32 36 -16 130 -101 130 -117 0 -5 15 -26 34 -47
41 -45 129 -219 145 -286 23 -93 30 -139 30 -200 1 -61 -27 -222 -48 -277 -6
-16 -11 -44 -11 -64 0 -31 -22 -91 -63 -168 -6 -11 -21 -41 -33 -66 -66 -136
-210 -302 -328 -380 -92 -60 -153 -75 -251 -61 -44 6 -124 10 -178 9 l-99 -3
-28 -34 c-16 -19 -36 -55 -46 -80 -9 -25 -52 -117 -95 -204 -44 -88 -79 -164
-79 -171 0 -9 -31 -86 -76 -192 -8 -17 -40 -22 -66 -9 -30 15 -36 61 -11 88
13 15 18 36 18 82 0 35 5 69 12 77 6 8 21 50 32 95 20 80 78 225 126 317 36
67 32 91 -25 175 -28 41 -50 76 -50 80 0 3 -9 15 -19 26 -20 22 -49 70 -89
150 -24 47 -25 54 -19 185 11 253 71 425 240 685 18 27 46 72 62 101 17 28 66
84 110 124 44 40 98 90 120 110 100 94 159 112 332 107 94 -3 140 -9 160 -20z
m3013 -1486 c47 -5 139 -13 205 -19 66 -7 138 -17 160 -22 22 -6 78 -17 125
-24 78 -12 191 -40 315 -78 91 -27 196 -76 375 -173 14 -8 32 -14 41 -14 17 0
106 -76 219 -190 36 -36 90 -88 120 -115 30 -28 78 -79 105 -114 28 -35 76
-94 107 -131 92 -110 174 -232 203 -306 25 -64 67 -139 122 -217 36 -52 100
-180 106 -214 3 -17 15 -51 25 -75 41 -93 61 -144 67 -168 3 -14 21 -68 40
-120 33 -95 108 -331 140 -445 9 -33 23 -78 30 -100 21 -63 55 -292 71 -470 3
-38 12 -108 20 -155 18 -102 21 -432 5 -523 -14 -84 -39 -262 -51 -372 -21
-190 -64 -382 -115 -515 -8 -19 -21 -60 -30 -90 -9 -30 -29 -82 -44 -115 -16
-33 -39 -91 -51 -130 -13 -38 -28 -77 -35 -85 -6 -8 -16 -26 -23 -40 -7 -14
-16 -32 -21 -40 -19 -32 -141 -291 -141 -301 0 -17 -62 -119 -80 -132 -10 -7
-37 -39 -59 -72 -23 -33 -55 -78 -71 -100 -37 -51 -173 -190 -230 -235 -49
-38 -148 -100 -160 -100 -5 0 -59 -33 -120 -74 -62 -41 -146 -91 -188 -111
-43 -20 -84 -41 -92 -46 -8 -5 -33 -18 -55 -29 -22 -11 -47 -24 -55 -30 -27
-17 -107 -49 -197 -78 -48 -16 -115 -43 -148 -59 -64 -32 -281 -93 -332 -93
-17 0 -61 -7 -99 -15 -69 -14 -448 -38 -619 -38 -113 0 -372 20 -405 32 -14 5
-92 22 -175 37 -82 15 -193 43 -245 61 -52 19 -120 40 -150 47 -127 31 -267
73 -285 86 -5 4 -26 10 -46 13 -40 6 -235 96 -284 130 -16 12 -46 29 -66 38
-72 33 -255 165 -357 259 -57 52 -118 104 -136 115 -18 11 -46 35 -62 54 -15
19 -40 41 -54 50 -31 19 -190 191 -190 205 0 6 -16 29 -36 50 -20 22 -43 54
-51 70 -9 17 -19 33 -23 36 -3 3 -20 26 -37 51 -17 25 -39 51 -48 59 -9 7 -36
54 -61 104 -25 50 -52 98 -60 107 -8 9 -23 46 -33 81 -24 85 -83 233 -127 319
-19 38 -34 82 -34 98 0 31 -41 290 -64 406 -16 76 -32 219 -41 355 -14 202 23
917 50 960 3 5 6 42 6 82 0 54 8 94 29 156 22 63 28 94 24 130 -4 30 0 63 10
91 9 24 16 57 16 74 0 26 37 107 158 342 11 22 40 85 63 140 24 55 62 131 86
168 24 37 43 72 43 78 0 24 61 140 92 175 35 39 112 147 135 188 6 11 119 129
250 261 210 212 248 246 323 288 92 52 225 143 284 194 41 37 74 48 116 40 52
-11 221 55 264 102 13 14 31 21 56 21 21 0 64 12 96 27 35 16 86 30 126 34 38
3 105 21 160 42 51 19 131 45 178 57 200 50 693 82 920 60z m-4006 -1015 c61
-27 65 -36 39 -89 -19 -40 -33 -38 -33 3 0 36 -25 59 -48 45 -9 -6 -26 -47
-38 -95 -12 -46 -29 -105 -38 -131 -19 -58 -13 -80 23 -76 24 3 27 8 33 62 4
32 14 66 21 75 8 9 17 24 20 34 4 10 12 15 18 11 15 -9 3 -66 -27 -127 -13
-28 -24 -61 -24 -73 0 -27 -44 -237 -68 -322 -17 -62 -34 -81 -41 -45 -4 20
-30 53 -42 53 -19 0 -40 -62 -34 -99 8 -49 -9 -121 -40 -167 -29 -43 -23 -64
26 -84 35 -15 35 -10 0 -133 -24 -87 -36 -100 -60 -68 -26 35 -53 24 -68 -28
-7 -24 -18 -50 -24 -58 -7 -7 -13 -31 -15 -51 -1 -20 -2 -45 -3 -54 -1 -24
-39 -33 -60 -14 -20 18 -42 85 -65 196 -13 60 -14 94 -6 170 16 161 24 188
111 407 16 39 29 79 29 88 0 9 6 31 14 48 62 135 82 186 116 288 22 63 53 143
70 177 27 55 34 62 68 67 20 4 44 8 52 10 31 6 39 4 94 -20z m6383 -366 c21
-40 49 -111 68 -169 47 -144 80 -181 147 -163 27 7 42 7 51 -1 17 -13 77 -113
77 -126 0 -9 38 -111 67 -177 7 -17 16 -46 19 -65 4 -18 14 -42 23 -53 10 -11
23 -33 30 -50 7 -16 33 -61 59 -99 44 -67 58 -108 96 -279 7 -33 22 -66 34
-78 12 -11 22 -32 22 -47 0 -15 7 -35 15 -45 7 -10 19 -50 26 -88 11 -64 11
-71 -5 -87 -17 -16 -19 -16 -29 2 -7 11 -30 38 -52 61 -22 23 -48 54 -58 69
-13 19 -26 26 -52 26 -30 0 -37 6 -67 54 -29 48 -98 106 -125 106 -11 0 -53
84 -53 107 0 10 -11 51 -25 93 -13 41 -31 98 -39 125 -8 28 -26 79 -41 115
-14 36 -30 88 -36 115 -5 28 -20 77 -33 110 -14 33 -41 112 -61 175 -38 119
-89 254 -131 343 -34 73 -32 77 19 62 26 -7 47 -21 54 -36z m443 -1919 c0 -9
16 -32 35 -51 19 -19 40 -46 46 -61 11 -27 50 -51 104 -64 48 -11 55 -22 56
-88 1 -84 10 -110 38 -114 23 -4 23 -6 19 -78 -4 -54 -11 -83 -25 -102 -11
-15 -23 -37 -27 -50 -8 -23 -14 -25 -84 -22 -28 1 -54 -6 -76 -19 -41 -26 -59
-26 -116 2 -39 19 -45 27 -53 66 -6 30 -4 68 7 125 23 125 30 210 27 344 -3
128 6 165 35 141 8 -6 14 -19 14 -29z m898 -646 c4 -45 -22 -104 -47 -104 -23
0 -44 51 -35 89 14 58 77 69 82 15z m-825 -686 c8 -12 6 -28 -8 -60 -36 -81
-43 -88 -90 -88 -36 0 -47 -5 -71 -33 -16 -18 -40 -53 -54 -76 -39 -68 -80
-111 -104 -111 -12 0 -37 -13 -56 -30 -57 -48 -90 -36 -90 35 0 30 15 70 54
148 30 59 56 119 58 134 3 24 10 29 62 42 57 13 61 13 102 -8 49 -26 61 -22
112 34 36 39 66 44 85 13z m-139 -607 c4 -7 -51 -82 -75 -101 -3 -3 -26 -32
-50 -65 -25 -33 -71 -87 -105 -120 -33 -33 -99 -104 -148 -157 l-89 -97 -84 2
c-74 2 -87 -1 -101 -18 -44 -52 -207 -155 -246 -155 -39 0 -32 21 22 72 58 55
162 173 162 185 0 4 27 40 61 78 33 39 63 82 66 98 4 22 11 27 35 27 16 0 38
-5 49 -10 25 -14 91 19 107 54 15 33 48 41 111 27 28 -6 56 -8 63 -5 15 6 60
74 79 119 24 55 49 75 95 75 24 0 45 -4 48 -9z"/>
<path d="M2048 8927 c-41 -19 -68 -48 -68 -74 0 -31 30 -30 78 2 20 14 42 25
48 25 6 0 18 8 27 18 33 36 -25 55 -85 29z"/>
<path d="M2390 8923 c0 -17 55 -62 80 -65 33 -4 38 26 8 46 -30 19 -88 32 -88
19z"/>
<path d="M2580 8800 c0 -20 29 -67 45 -73 19 -8 18 -1 -3 42 -17 34 -42 53
-42 31z"/>
<path d="M1821 8705 c-40 -44 -50 -68 -32 -79 17 -11 41 6 71 51 55 81 29 101
-39 28z"/>
<path d="M2665 8671 c4 -7 11 -42 15 -77 9 -73 25 -101 46 -83 23 19 16 65
-17 113 -26 40 -65 80 -44 47z"/>
<path d="M1598 8448 c-26 -43 -58 -136 -58 -170 0 -22 27 -35 41 -21 6 6 15
30 20 54 6 24 24 65 40 91 33 52 35 81 4 86 -14 2 -28 -10 -47 -40z"/>
<path d="M2665 8233 c-9 -32 -19 -66 -21 -76 -3 -10 -3 -30 1 -44 4 -19 9 -22
19 -14 18 15 48 121 44 155 -5 50 -25 41 -43 -21z"/>
<path d="M1499 8078 c-17 -32 -4 -200 18 -247 10 -20 26 -38 37 -39 17 -4 18
1 11 44 -4 26 -8 92 -10 145 -2 54 -6 102 -10 108 -10 18 -34 12 -46 -11z"/>
<path d="M2568 7950 c-9 -6 -19 -23 -23 -40 -3 -16 -15 -40 -26 -54 -26 -33
-49 -100 -39 -116 12 -19 45 4 60 42 7 18 23 57 36 86 24 52 31 92 17 92 -5 0
-16 -5 -25 -10z"/>
<path d="M1620 7662 c0 -19 27 -38 39 -27 7 8 -12 38 -27 43 -7 2 -12 -5 -12
-16z"/>
<path d="M2348 7610 c-18 -31 -32 -43 -61 -51 -45 -12 -44 -35 1 -33 45 2 112
59 112 96 0 41 -25 35 -52 -12z"/>
<path d="M1955 7520 c-13 -21 17 -31 70 -25 52 7 63 11 52 22 -14 13 -114 16
-122 3z"/>
<path d="M4702 7180 c-73 -15 -139 -34 -147 -40 -8 -7 -15 -23 -15 -37 0 -18
9 -28 35 -39 40 -16 65 -12 188 32 79 28 113 30 153 9 35 -18 115 -20 132 -3
30 30 1 68 -65 87 -77 22 -147 20 -281 -9z"/>
<path d="M5620 7168 c-33 -18 -36 -49 -8 -75 17 -16 46 -25 108 -33 46 -6 111
-23 144 -37 50 -21 68 -24 118 -18 51 6 62 4 81 -13 12 -11 49 -27 82 -36 33
-9 74 -20 90 -25 46 -12 112 -48 137 -75 34 -35 81 -43 107 -17 12 12 21 27
21 35 0 17 -63 66 -84 66 -8 0 -28 13 -44 28 -33 32 -119 76 -177 91 -22 5
-84 24 -139 40 -54 17 -111 31 -126 31 -15 0 -52 9 -82 19 -76 26 -195 36
-228 19z"/>
<path d="M5133 7163 c-24 -9 -13 -23 17 -23 20 0 30 5 30 15 0 15 -22 19 -47
8z"/>
<path d="M5193 7095 c-42 -25 -46 -32 -58 -92 -4 -18 -11 -33 -15 -33 -5 0
-15 -18 -21 -40 -11 -37 -10 -43 9 -70 12 -16 22 -33 22 -38 0 -19 47 -62 67
-62 11 0 23 -7 27 -15 9 -24 39 -19 33 5 -3 14 6 34 28 60 31 37 65 122 79
199 5 29 1 38 -33 72 -46 47 -78 50 -138 14z"/>
<path d="M4822 7074 c-12 -8 -22 -22 -22 -30 0 -8 -4 -14 -8 -14 -8 0 -42
-105 -42 -131 0 -8 11 -31 25 -51 14 -20 25 -44 25 -52 0 -8 5 -18 10 -21 6
-4 8 -11 5 -16 -4 -5 -1 -9 4 -9 6 0 11 5 11 10 0 16 40 12 57 -6 14 -13 14
-17 2 -25 -10 -6 -10 -9 -1 -9 6 0 12 -5 12 -10 0 -15 -99 -1 -119 17 -87 74
-106 80 -130 42 -7 -12 -8 -18 -3 -15 5 3 15 -1 22 -9 10 -12 10 -15 -3 -15
-8 0 -18 -7 -21 -16 -3 -8 -11 -12 -17 -9 -6 4 -21 -3 -35 -16 l-24 -22 0 21
c0 26 -29 30 -31 5 -4 -58 -3 -58 -44 -63 -38 -5 -40 -7 -40 -38 -1 -40 -24
-59 -42 -35 -9 12 -13 13 -13 3 0 -10 -15 -12 -62 -8 -35 3 -53 3 -40 1 31 -6
28 -23 -5 -23 -31 0 -71 -19 -43 -20 34 -1 -16 -20 -52 -20 -37 0 -51 -13 -25
-23 9 -4 9 -6 -1 -6 -7 -1 -20 15 -29 34 -9 19 -20 35 -24 35 -19 0 -39 -13
-39 -26 0 -9 -11 -14 -27 -14 -16 0 -35 -5 -43 -10 -11 -7 -3 -10 30 -10 29 0
40 -3 31 -9 -7 -5 -32 -7 -55 -5 -22 1 -35 0 -28 -3 21 -8 13 -23 -13 -23 -15
0 -28 -7 -32 -17 -9 -23 -23 -33 -51 -33 -26 0 -36 -21 -46 -99 -8 -64 -12
-72 -30 -65 -8 3 -12 14 -9 25 6 23 -10 25 -27 4 -10 -13 -15 -13 -21 -3 -5 8
-11 4 -18 -15 -12 -32 -36 -44 -54 -29 -14 12 -57 12 -57 1 0 -8 -45 -22 -75
-23 -33 -2 -46 -15 -39 -41 4 -16 -1 -34 -15 -54 -12 -16 -21 -36 -21 -43 0
-8 -9 -23 -19 -32 -16 -15 -22 -15 -40 -4 -28 17 -34 37 -16 54 10 11 13 24 8
42 -4 15 -7 35 -7 45 0 9 -6 17 -13 17 -7 0 -13 7 -13 15 0 23 -50 65 -116 96
-90 43 -127 26 -149 -71 -9 -38 63 -145 111 -165 20 -8 46 -15 58 -15 15 0 25
-9 33 -30 6 -16 18 -30 27 -30 13 0 16 -13 16 -68 0 -37 -4 -72 -9 -77 -5 -6
-11 -21 -13 -35 -2 -18 -11 -26 -33 -30 -40 -8 -83 -37 -90 -60 -3 -11 -11
-17 -18 -14 -7 2 -34 -17 -60 -42 -41 -41 -47 -52 -47 -89 0 -60 -33 -89 -92
-82 -24 3 -54 7 -68 9 -21 3 -25 -1 -22 -22 2 -14 7 -56 10 -95 7 -65 9 -70
30 -67 12 2 22 -2 22 -7 0 -6 -4 -11 -9 -11 -5 0 -13 -18 -19 -40 -8 -31 -7
-40 3 -40 7 0 15 6 18 13 2 7 8 8 13 3 5 -5 4 -11 -3 -13 -8 -3 -13 -22 -13
-44 0 -21 -4 -39 -8 -39 -7 0 -32 -57 -32 -74 0 -5 9 -6 20 -3 13 3 20 0 20
-9 0 -10 12 -14 40 -14 28 0 40 -4 40 -14 0 -12 -18 -15 -85 -14 -47 0 -85 5
-85 9 0 19 -27 8 -38 -16 -6 -14 -17 -25 -23 -25 -8 0 -8 -5 1 -15 10 -12 10
-22 2 -40 -6 -13 -7 -25 -2 -27 5 -2 11 -28 14 -58 4 -44 10 -59 32 -76 25
-21 26 -22 6 -28 -11 -4 -24 -5 -28 -4 -5 2 -19 -4 -30 -12 -16 -11 -21 -26
-22 -60 0 -53 20 -80 58 -80 26 0 60 -26 60 -46 0 -26 -23 -33 -54 -17 -17 9
-53 20 -81 24 -27 4 -69 11 -92 14 -103 18 -183 -21 -183 -88 0 -46 19 -97 36
-97 8 0 16 0 19 0 2 -1 30 -14 61 -30 31 -17 63 -30 70 -30 8 0 36 11 62 25
26 14 59 25 73 25 24 0 26 -3 25 -39 0 -22 -3 -39 -6 -39 -14 3 -40 -16 -40
-29 0 -8 13 -27 30 -43 l29 -27 -23 -11 c-20 -9 -25 -7 -35 14 -9 21 -17 24
-63 24 -79 0 -165 -17 -193 -37 -32 -24 -32 -63 1 -94 22 -21 37 -24 111 -28
53 -2 89 1 96 8 6 6 19 11 29 11 10 0 18 5 18 10 0 7 8 7 22 -1 20 -11 20 -13
5 -24 -61 -44 -67 -51 -67 -77 0 -28 26 -62 40 -53 4 3 10 -5 13 -16 3 -12 10
-18 16 -15 19 12 23 -17 21 -183 -1 -162 0 -169 20 -174 11 -3 20 -11 20 -19
0 -11 -2 -10 -9 1 -7 11 -11 9 -20 -8 -13 -23 3 -65 33 -90 9 -8 16 -20 16
-27 0 -8 9 -14 20 -14 21 0 28 16 10 22 -14 4 11 58 28 58 7 0 12 15 12 40 0
29 -4 40 -15 40 -12 0 -15 16 -15 80 0 73 -2 80 -20 80 -18 0 -20 7 -20 79 l0
78 83 1 c115 1 165 -22 123 -58 -8 -6 -13 -17 -11 -23 2 -7 6 -63 9 -124 6
-97 4 -113 -9 -113 -11 0 -15 -11 -15 -39 0 -31 -4 -41 -20 -46 -15 -5 -20
-15 -20 -43 0 -20 -4 -32 -8 -27 -4 6 -17 19 -29 29 -20 16 -23 17 -23 3 0 -9
9 -18 20 -22 19 -6 18 -8 -10 -38 -16 -17 -32 -44 -35 -59 -3 -16 -7 -41 -10
-56 -5 -27 -2 -30 39 -46 25 -10 50 -15 54 -12 17 10 41 -28 35 -56 -4 -21
-11 -28 -29 -28 -13 0 -24 -6 -23 -12 1 -18 17 -55 18 -42 1 7 8 15 17 18 8 3
12 2 9 -4 -7 -11 35 -80 49 -80 10 0 35 -30 36 -42 0 -5 -7 -8 -15 -8 -10 0
-15 -10 -15 -33 0 -24 6 -35 22 -42 14 -6 25 -22 28 -40 3 -16 10 -30 15 -30
6 0 9 -3 8 -7 -2 -5 2 -8 9 -8 7 0 29 -12 50 -26 33 -23 45 -26 94 -22 64 5
76 -6 50 -47 -21 -32 -22 -69 -1 -61 9 3 24 -3 35 -14 11 -11 27 -20 35 -20 8
0 12 -6 9 -14 -4 -10 7 -22 33 -35 21 -10 44 -29 51 -40 7 -12 23 -21 37 -21
14 0 25 -4 25 -10 0 -5 -4 -10 -10 -10 -5 0 -10 -10 -10 -21 0 -18 5 -20 27
-16 15 3 35 1 45 -4 10 -6 19 -5 23 1 9 14 62 13 67 -2 3 -8 11 -7 28 5 25 18
51 23 49 10 -1 -5 -1 -36 0 -70 1 -71 22 -103 66 -103 15 0 40 -7 57 -16 23
-12 32 -13 38 -4 6 9 16 9 44 -1 20 -7 36 -17 36 -21 0 -4 9 -8 20 -8 11 0 20
-4 20 -10 0 -5 9 -10 20 -10 13 0 20 -7 20 -20 0 -22 16 -26 153 -36 48 -3 87
-10 87 -15 0 -5 18 -9 40 -9 33 0 40 -3 40 -20 0 -19 7 -20 159 -20 110 0 161
4 163 11 3 9 46 9 163 2 125 -8 142 -10 78 -11 -108 -2 -110 -22 -3 -22 47 0
80 -4 80 -10 0 -5 6 -10 13 -10 6 0 21 -18 31 -40 19 -39 21 -40 69 -40 61 0
59 -7 -3 -11 -43 -3 -60 -12 -60 -34 0 -12 150 -12 169 0 8 4 17 2 22 -6 7
-12 12 -11 26 5 17 17 17 18 -4 11 -14 -4 -23 -2 -23 4 0 6 -6 11 -14 11 -8 0
-18 5 -22 12 -5 8 6 10 42 6 70 -8 74 -5 74 60 1 49 4 59 26 76 19 13 29 15
37 7 15 -15 257 -15 257 -1 0 14 50 60 64 60 6 0 18 9 26 20 8 11 19 20 25 20
20 0 44 65 56 153 12 86 13 87 40 87 15 0 31 -5 34 -10 6 -10 139 -4 156 6 4
2 10 -3 13 -12 5 -13 9 -14 21 -4 12 10 15 10 15 -3 0 -9 -6 -20 -14 -24 -14
-9 -29 -103 -18 -120 4 -6 15 -7 30 -2 20 8 22 15 22 89 0 73 -2 80 -20 80
-22 0 -28 17 -34 105 -3 48 -7 59 -20 57 -13 -2 -16 7 -16 48 0 27 -4 50 -10
50 -5 0 -10 14 -10 30 0 17 5 30 10 30 6 0 10 18 10 40 0 38 -2 40 -30 40 -28
0 -30 -2 -30 -40 0 -64 -18 -46 -22 21 -2 40 1 64 10 71 9 8 12 5 12 -11 0
-17 6 -21 30 -21 23 0 30 4 30 20 0 11 5 20 10 20 6 0 10 -30 10 -70 0 -45 4
-70 11 -70 8 0 10 20 7 60 -5 68 6 85 47 78 18 -4 29 1 42 20 10 15 30 38 45
53 25 24 26 28 12 40 -8 7 -22 25 -30 40 -9 18 -19 26 -29 23 -20 -8 -19 10 1
30 19 19 40 21 51 4 4 -7 17 -13 28 -13 15 0 24 -12 35 -45 14 -41 18 -45 43
-42 16 2 34 -1 40 -6 7 -6 41 -26 75 -46 47 -26 76 -36 108 -36 30 0 54 -7 73
-21 29 -21 68 -22 64 -2 -1 6 17 14 39 17 35 6 54 19 115 83 40 42 73 82 73
91 0 11 3 12 14 3 10 -9 15 -9 18 0 2 6 15 12 30 12 16 1 24 7 21 14 -3 7 2
16 11 19 9 3 16 11 16 16 0 6 -7 4 -16 -3 -14 -12 -16 -11 -13 6 3 15 13 20
41 20 31 0 37 -4 42 -26 8 -40 66 -48 66 -10 0 10 11 30 25 45 18 20 23 34 19
52 -3 13 -10 24 -14 24 -8 0 -8 9 5 88 8 55 34 74 36 27 1 -14 2 -31 3 -37 1
-7 -3 -16 -8 -20 -12 -8 34 -78 51 -78 20 0 27 48 11 72 -11 16 -12 35 -6 81
5 39 5 64 -2 71 -7 7 -10 4 -10 -9 -1 -19 -1 -19 -11 -2 -14 24 -29 21 -29 -5
-1 -23 -1 -23 -15 2 -11 21 -11 26 0 28 10 2 11 11 4 35 -13 45 -12 47 16 45
18 -2 25 -8 25 -23 -1 -20 -1 -20 -15 -1 -22 29 -29 13 -10 -23 16 -31 47 -41
61 -19 4 7 3 8 -4 4 -15 -9 -16 26 -1 41 8 8 8 13 0 17 -17 11 -13 36 4 30 9
-4 15 0 15 9 0 8 -7 17 -15 21 -8 3 -15 17 -15 32 0 19 4 25 15 20 17 -6 19
11 9 63 -9 42 -24 39 -24 -4 0 -27 -7 -42 -27 -60 -16 -13 -32 -25 -36 -25
-10 0 -28 -19 -43 -45 -14 -25 -34 -31 -34 -11 0 9 -5 16 -11 16 -7 0 -9 -10
-7 -24 4 -18 1 -23 -10 -19 -11 5 -13 1 -7 -16 10 -33 -27 -66 -54 -50 -16 11
-23 7 -50 -22 -20 -21 -34 -29 -37 -22 -9 21 -55 -7 -52 -31 2 -12 9 -20 16
-18 8 1 11 -2 7 -8 -3 -6 -11 -8 -16 -5 -5 4 -9 1 -9 -4 0 -6 -15 -11 -32 -11
-27 0 -80 -19 -55 -20 4 0 1 -12 -6 -27 -8 -16 -17 -44 -21 -64 -3 -20 -17
-46 -31 -59 -14 -13 -25 -31 -25 -41 0 -10 -20 -31 -46 -48 -61 -42 -107 -41
-165 1 -24 17 -45 35 -47 40 -2 4 -10 8 -17 8 -20 0 -28 19 -16 34 8 10 7 17
-5 27 -14 11 -18 10 -34 -11 l-18 -23 3 26 c3 27 2 28 -47 30 -23 1 -58 35
-58 56 0 7 -11 34 -25 61 -27 54 -29 60 -17 60 5 0 14 -11 20 -25 7 -16 19
-25 29 -23 13 2 17 -4 16 -28 0 -34 1 -35 120 -65 36 -9 47 -16 44 -28 -3 -12
4 -16 30 -17 18 0 29 2 23 6 -8 5 -7 10 2 18 19 15 68 23 68 11 0 -6 4 -7 10
-4 5 3 19 -6 32 -20 23 -26 43 -34 35 -12 -2 6 2 29 9 50 8 21 9 37 4 37 -6 0
-10 4 -10 9 0 5 18 12 40 16 71 12 75 63 6 89 -47 18 -96 21 -96 6 0 -7 -7 -7
-21 0 -20 11 -20 12 -1 28 20 17 20 18 1 41 -10 13 -19 34 -19 47 0 12 -8 27
-17 33 -15 8 -18 29 -20 153 -1 78 1 133 3 121 5 -20 12 -23 54 -23 27 0 52
-4 55 -10 3 -5 35 -10 71 -10 57 0 64 -2 64 -20 0 -18 -7 -20 -74 -20 -50 0
-76 4 -79 13 -3 6 -6 2 -6 -10 -1 -21 3 -22 132 -25 107 -3 134 -1 145 11 14
17 16 111 2 111 -6 0 -8 43 -5 118 3 64 2 191 -3 282 l-9 165 -1 -122 c-1 -74
-6 -123 -12 -123 -6 0 -10 55 -10 145 l0 144 28 15 c15 8 23 15 18 16 -5 0 -1
9 9 20 15 16 16 22 5 35 -8 9 -14 28 -15 41 0 14 -7 29 -14 33 -8 5 -10 14 -7
20 5 7 -1 11 -13 11 -18 0 -21 6 -21 40 0 22 -4 40 -10 40 -5 0 -10 18 -10 41
0 26 -4 38 -11 34 -7 -5 -8 19 -3 79 5 62 4 86 -5 86 -6 0 -11 17 -11 40 0 29
4 40 15 40 11 0 15 12 15 49 0 31 -5 53 -15 61 -8 7 -15 21 -15 31 0 14 -7 19
-25 19 -22 0 -25 4 -25 40 0 22 -4 40 -10 40 -5 0 -10 20 -10 44 0 46 -16 69
-31 45 -6 -10 -9 -2 -9 23 0 20 -6 39 -12 41 -8 3 -6 6 5 6 9 1 17 -3 17 -9 0
-5 5 -10 12 -10 9 0 9 3 0 12 -7 7 -12 22 -12 35 0 16 -4 21 -15 17 -10 -4
-15 0 -15 15 0 12 -6 21 -14 21 -29 0 -38 29 -38 123 1 81 -2 95 -19 105 -10
7 -19 8 -19 4 0 -5 -15 -16 -34 -24 -26 -13 -42 -14 -72 -6 -77 20 -92 20
-117 3 -22 -14 -27 -14 -38 -2 -8 8 -23 12 -34 10 -13 -3 -10 1 9 11 15 9 35
16 42 16 10 0 14 14 14 48 0 39 5 53 25 70 28 25 32 42 10 42 -21 0 -9 89 16
115 13 13 19 15 19 6 0 -11 3 -11 15 -1 20 16 19 27 -2 33 -14 4 -12 5 5 6 12
0 22 -4 22 -11 0 -9 3 -9 12 0 17 17 68 15 68 -2 0 -7 9 -16 20 -19 12 -3 20
0 20 8 0 7 7 18 15 25 10 8 13 22 9 39 -3 14 -6 31 -6 37 -1 6 -10 9 -20 7
-10 -3 -26 -2 -35 3 -10 4 -22 8 -28 9 -28 3 -51 17 -64 37 -8 13 -20 32 -27
43 -17 26 -3 51 22 40 11 -5 21 -9 24 -10 3 -1 12 -5 21 -9 12 -5 32 9 73 50
l56 57 0 77 c0 92 -10 106 -67 94 -21 -4 -43 -7 -49 -6 -5 1 -19 -6 -30 -16
-10 -9 -31 -22 -46 -29 -14 -6 -30 -22 -33 -35 -4 -13 -12 -26 -16 -29 -5 -3
-4 -20 2 -37 12 -35 4 -87 -11 -77 -6 4 -10 -6 -10 -21 0 -22 -3 -25 -12 -16
-7 7 -13 25 -14 40 -1 15 -3 31 -3 35 -1 5 -5 5 -11 2 -5 -3 -10 3 -10 14 0
12 6 21 14 21 22 0 29 33 11 47 -11 7 -15 19 -10 32 5 17 2 21 -14 21 -12 0
-21 5 -21 11 0 7 -9 9 -21 6 -12 -3 -22 0 -26 9 -8 21 -21 17 -25 -7 -3 -19
-4 -19 -38 6 -19 14 -50 33 -67 42 -18 8 -33 19 -33 24 0 5 -6 6 -14 3 -8 -3
-17 0 -22 7 -4 8 -3 10 4 5 7 -4 12 -4 12 1 0 4 -14 14 -31 22 -30 13 -33 12
-50 -10 -10 -13 -19 -30 -20 -36 -1 -7 -2 -18 -3 -24 -1 -12 -261 -17 -273 -5
-4 3 0 6 8 6 9 0 5 8 -11 23 -36 32 -77 57 -95 57 -24 0 -75 29 -101 57 -12
13 -29 25 -36 27 -7 1 -17 4 -23 8 -5 3 -26 9 -45 13 -38 8 -65 38 -65 70 0
14 -8 21 -27 23 -23 3 -29 -3 -47 -43 -11 -25 -19 -51 -17 -58 1 -7 1 -9 -1
-4 -6 10 -43 9 -43 -2 0 -4 -11 -6 -25 -3 -15 2 -25 0 -25 -7 0 -18 -28 -12
-35 7 -3 11 -29 30 -58 45 -55 27 -113 46 -88 29 9 -7 10 -12 2 -16 -6 -4 -11
-16 -11 -26 0 -28 -14 -32 -58 -18 l-40 12 26 23 c15 13 34 25 42 28 12 4 14
22 12 97 -3 82 -6 98 -30 132 -40 57 -124 82 -170 50z m558 -278 c0 -3 -4 -8
-10 -11 -5 -3 -10 -1 -10 4 0 6 5 11 10 11 6 0 10 -2 10 -4z m-630 -73 c0 -1
-9 -12 -20 -23 -20 -20 -25 -15 -15 13 5 11 35 21 35 10z m-50 -38 c-1 -19 -2
-19 -14 -3 -15 20 -26 14 -27 -16 0 -20 -1 -19 -10 2 -12 31 -4 42 26 40 18
-2 25 -8 25 -23z m260 -235 c0 -5 -18 -10 -40 -10 -22 0 -40 5 -40 10 0 6 18
10 40 10 22 0 40 -4 40 -10z m-25 -24 c66 1 83 -2 96 -18 9 -10 28 -18 43 -18
24 0 26 -4 28 -42 l1 -43 4 43 4 42 245 0 244 -1 0 -79 0 -80 64 0 64 0 7
-156 c4 -85 5 -158 2 -161 -3 -3 -78 -5 -166 -6 l-161 0 0 -79 c0 -63 3 -78
15 -78 8 0 15 -9 15 -20 0 -17 3 -19 19 -10 11 5 29 10 40 10 12 0 21 5 21 10
0 6 5 10 10 10 6 0 10 -18 10 -40 0 -29 4 -40 15 -40 11 0 15 -11 15 -40 0
-36 -2 -40 -25 -40 -18 0 -25 -5 -25 -20 0 -17 -7 -20 -40 -20 l-40 0 0 -88
c0 -94 8 -112 48 -112 21 0 23 -3 17 -22 -4 -13 -8 -33 -9 -45 -1 -27 -56 -53
-56 -27 0 8 -10 14 -25 14 -22 0 -25 4 -25 40 0 29 -4 40 -15 40 -11 0 -15 11
-15 40 0 38 2 40 30 40 23 0 30 5 30 19 0 10 3 46 6 80 l7 61 -158 0 -158 0 6
74 c4 52 2 78 -6 84 -7 4 -46 8 -87 7 l-75 -1 3 238 c3 234 2 238 -18 238 -20
0 -20 -5 -20 -238 l0 -238 -57 1 -58 0 -3 158 -3 157 -24 0 -25 0 0 159 c0 94
-4 162 -10 166 -6 4 -5 13 2 25 11 17 19 19 63 13 27 -4 86 -7 130 -7z m-215
-26 c0 -5 -12 -10 -26 -10 -14 0 -23 4 -19 10 3 6 15 10 26 10 10 0 19 -4 19
-10z m960 -515 c0 -10 -11 -15 -35 -15 -24 0 -35 5 -35 15 0 10 11 15 35 15
24 0 35 -5 35 -15z m-80 -175 c0 -22 -4 -40 -10 -40 -5 0 -10 18 -10 40 0 22
5 40 10 40 6 0 10 -18 10 -40z m190 36 c0 -2 -7 -9 -15 -16 -12 -10 -15 -10
-15 4 0 9 7 16 15 16 8 0 15 -2 15 -4z m66 -46 c8 0 14 10 14 25 0 18 5 25 19
25 22 0 34 -35 20 -61 -14 -27 -12 -29 27 -29 38 0 74 -15 74 -30 0 -11 -59
-38 -95 -44 -13 -2 -32 -9 -43 -15 -11 -6 -22 -7 -26 -4 -3 4 -3 -8 0 -25 4
-19 2 -32 -3 -32 -7 0 -7 -14 0 -42 5 -24 11 -63 13 -88 1 -25 3 -49 3 -53 1
-4 7 -7 14 -5 6 1 23 -4 37 -12 14 -7 43 -17 65 -21 104 -21 119 -25 122 -35
6 -17 -70 -25 -126 -13 -38 8 -56 18 -72 40 -12 17 -28 29 -38 28 -40 -4 -44
0 -38 41 5 41 -4 58 -39 78 -28 16 -20 70 15 106 20 20 31 41 29 52 -3 14 5
22 26 30 16 6 31 15 33 21 5 15 -27 25 -41 14 -7 -6 -17 -6 -26 -1 -8 6 -25
10 -37 10 -17 0 -23 6 -23 21 0 17 3 19 13 10 17 -14 56 17 58 45 1 11 4 7 6
-8 2 -16 11 -28 19 -28z m208 44 c9 -3 16 -14 16 -23 0 -14 -7 -17 -30 -13
-33 5 -45 16 -35 32 7 11 26 13 49 4z m196 -9 c-14 -8 -41 -14 -60 -14 -33 0
-34 1 -16 14 11 8 38 15 60 15 41 -1 41 -1 16 -15z m23 -61 c47 -17 -15 -39
-94 -32 -52 4 -56 17 -11 39 32 17 40 16 105 -7z m232 -54 c3 -6 15 -10 25
-10 24 0 44 -58 42 -127 -1 -29 3 -53 8 -53 6 0 10 -20 10 -45 0 -56 -29 -92
-60 -75 -19 10 -19 13 -5 40 19 38 22 94 6 114 -7 8 -10 20 -6 26 7 11 -85
110 -102 110 -6 0 -16 6 -22 14 -9 10 -8 15 4 20 8 3 21 3 29 0 8 -3 17 -1 21
5 7 12 39 0 50 -19z m-2821 -3 c14 -8 23 -17 19 -20 -11 -12 -133 -8 -133 4 0
5 5 7 10 4 6 -3 10 -2 10 4 0 5 15 12 33 14 17 2 33 5 33 5 1 1 13 -4 28 -11z
m1183 -89 c-2 -13 -4 -3 -4 22 0 25 2 35 4 23 2 -13 2 -33 0 -45z m-1472 42
c3 -5 1 -10 -4 -10 -6 0 -11 5 -11 10 0 6 2 10 4 10 3 0 8 -4 11 -10z m-5 -27
c-1 -11 -26 -43 -34 -43 -8 0 -8 35 1 43 9 9 33 9 33 0z m3206 -30 c-10 -10
-19 5 -10 18 6 11 8 11 12 0 2 -7 1 -15 -2 -18z m-1052 -10 c-10 -40 -14 -41
-14 -5 0 18 5 32 10 32 6 0 8 -11 4 -27z m-354 -3 c0 -5 -18 -10 -40 -10 -22
0 -40 5 -40 10 0 6 18 10 40 10 22 0 40 -4 40 -10z m-2080 -26 c0 -17 -22 -14
-28 4 -2 7 3 12 12 12 9 0 16 -7 16 -16z m3616 -46 c4 -7 3 -8 -4 -4 -8 5 -12
-5 -12 -33 0 -23 -4 -41 -10 -41 -15 0 -12 77 3 83 6 3 13 6 14 6 1 1 5 -4 9
-11z m-3462 -61 c8 -22 6 -30 -10 -42 -26 -20 -31 -19 -50 10 -16 24 -16 27 2
46 23 26 46 21 58 -14z m3186 -97 c0 -5 -7 -10 -15 -10 -8 0 -15 5 -15 10 0 6
7 10 15 10 8 0 15 -4 15 -10z m-85 -34 l27 -14 -43 -10 c-28 -5 -51 -5 -63 1
-18 9 -18 10 5 23 31 17 41 17 74 0z m-1498 -12 c-3 -3 -12 -4 -19 -1 -8 3 -5
6 6 6 11 1 17 -2 13 -5z m763 -25 c0 -5 -9 -9 -20 -9 -22 0 -27 16 -7 23 15 5
27 -1 27 -14z m399 -9 c-8 -6 -6 -11 8 -18 13 -7 23 -8 30 -1 6 6 19 5 38 -5
l28 -15 -28 -7 c-16 -4 -36 -2 -45 4 -10 6 -28 8 -41 5 -19 -5 -21 -3 -14 13
4 10 8 24 8 31 0 6 7 9 15 6 10 -4 11 -8 1 -13z m-2456 -12 c87 -1 160 -5 162
-9 8 -13 -51 -31 -115 -34 -35 -2 -66 -9 -68 -15 -2 -5 -16 -9 -30 -9 -17 1
-21 3 -9 6 21 6 22 29 1 37 -25 10 -84 7 -84 -4 0 -5 -9 -10 -21 -10 -11 0
-29 -5 -40 -10 -21 -12 -26 -1 -7 18 8 8 8 15 -3 28 -13 16 -11 17 21 11 19
-3 106 -7 193 -9z m2642 -16 c0 -6 3 -14 8 -18 14 -14 7 -21 -17 -17 -14 3
-33 14 -43 25 -14 16 -15 21 -3 28 16 10 55 -3 55 -18z m-1337 6 c17 -17 15
-43 -5 -59 -11 -10 -14 -10 -9 -1 4 7 2 12 -8 12 -16 0 -46 26 -46 40 0 8 20
16 46 19 5 0 15 -4 22 -11z m787 -18 c0 -18 -33 -26 -47 -12 -6 6 -7 15 -3 22
10 16 50 8 50 -10z m-1072 -94 c7 -17 -4 -66 -13 -66 -12 0 -25 34 -28 73 -1
11 -7 15 -14 11 -7 -4 -8 -3 -4 4 8 13 52 -3 59 -22z m310 -5 c6 -28 7 -29 47
-20 22 5 51 7 64 3 14 -3 27 0 35 10 7 8 18 13 24 11 48 -14 49 -15 35 -29
-16 -15 -37 -23 -88 -31 -19 -3 -43 -16 -52 -28 -10 -12 -18 -18 -18 -13 0 5
-6 3 -14 -3 -10 -8 -16 -8 -24 1 -11 15 -32 84 -32 111 0 28 17 19 23 -12z
m-390 5 c4 -10 0 -12 -15 -8 -15 4 -17 7 -6 13 17 11 15 11 21 -5z m122 -15
c3 -5 1 -12 -5 -16 -5 -3 -10 1 -10 9 0 18 6 21 15 7z m735 -15 c0 -3 -14 -12
-32 -20 -35 -18 -84 -21 -93 -6 -3 6 3 10 14 10 11 0 23 5 26 10 6 9 85 15 85
6z m-123 -52 c-3 -3 -12 -4 -19 -1 -8 3 -5 6 6 6 11 1 17 -2 13 -5z m-695 -36
c-9 -9 -15 -9 -24 0 -9 9 -7 12 12 12 19 0 21 -3 12 -12z m718 5 c0 -5 -5 -15
-10 -23 -8 -12 -10 -11 -10 8 0 12 5 22 10 22 6 0 10 -3 10 -7z m81 -36 c-15
-15 -24 -2 -16 24 7 20 8 21 17 5 7 -12 7 -21 -1 -29z m1526 -9 c-2 -13 -4 -5
-4 17 -1 22 1 32 4 23 2 -10 2 -28 0 -40z m-823 14 c2 -4 1 -14 -4 -21 -5 -9
-1 -27 8 -47 15 -29 22 -34 55 -34 20 0 37 -4 37 -10 0 -5 18 -10 40 -10 l40
0 0 -80 0 -80 -80 0 c-73 0 -80 2 -80 20 0 18 -7 20 -80 20 -73 0 -80 2 -80
20 0 17 -7 20 -40 20 -33 0 -40 3 -40 20 0 17 -7 20 -40 20 -40 0 -40 0 -40
38 1 28 7 41 26 56 19 13 29 15 37 7 6 -6 48 -11 99 -11 74 0 89 3 97 18 6 10
6 24 1 32 -11 18 -3 30 20 30 10 0 21 -4 24 -8z m-1764 -33 c0 -10 -27 -19
-34 -12 -3 4 -6 15 -6 25 0 16 3 16 20 6 11 -7 20 -16 20 -19z m527 9 c26 -29
53 -82 53 -104 0 -23 -49 -165 -62 -181 -16 -20 -53 -15 -74 8 -20 23 -43 97
-43 144 0 17 8 41 19 55 11 14 20 30 20 36 0 17 40 64 54 64 7 0 22 -10 33
-22z m988 -8 c3 -5 1 -10 -4 -10 -6 0 -11 5 -11 10 0 6 2 10 4 10 3 0 8 -4 11
-10z m185 0 c0 -6 -33 -10 -80 -10 -47 0 -80 4 -80 10 0 6 33 10 80 10 47 0
80 -4 80 -10z m-741 -52 c6 -16 5 -27 -5 -38 -20 -20 -37 0 -28 34 8 32 22 34
33 4z m1421 -4 c0 -11 -26 -14 -140 -14 -119 0 -140 2 -140 15 0 13 20 15 140
14 113 -1 140 -4 140 -15z m-2280 -24 c0 -12 -8 -12 -35 0 -18 8 -17 9 8 9 15
1 27 -3 27 -9z m780 -54 c0 -8 -4 -17 -9 -20 -10 -7 -23 19 -14 28 11 11 23 6
23 -8z m-783 -14 c19 -16 19 -20 7 -37 -13 -18 -15 -18 -31 -3 -13 13 -14 20
-5 31 7 8 9 17 5 20 -14 15 5 6 24 -11z m136 -42 c-4 -73 -18 -83 -30 -22 -9
46 -8 49 11 48 16 -1 21 -7 19 -26z m525 21 c20 -12 21 -100 1 -114 -8 -7 -22
-27 -30 -44 -7 -18 -19 -33 -26 -33 -17 0 -27 39 -13 55 6 8 14 38 16 67 7 80
16 92 52 69z m1619 -63 c-2 -13 -4 -3 -4 22 0 25 2 35 4 23 2 -13 2 -33 0 -45z
m220 10 c-2 -13 -4 -5 -4 17 -1 22 1 32 4 23 2 -10 2 -28 0 -40z m-1777 -24
c0 -8 -4 -12 -10 -9 -5 3 -10 10 -10 16 0 5 5 9 10 9 6 0 10 -7 10 -16z m-520
-44 c26 -26 27 -80 2 -80 -30 0 -72 42 -72 73 0 22 4 27 25 27 14 0 34 -9 45
-20z m810 -105 c0 -8 -9 -15 -20 -15 -20 0 -26 11 -13 23 12 13 33 7 33 -8z
m-436 -13 c-4 -9 -10 -39 -13 -66 -5 -38 -11 -51 -28 -57 -17 -6 -23 -4 -28
12 -4 11 -1 26 5 34 7 8 9 22 6 31 -9 23 17 59 44 61 17 2 20 -2 14 -15z
m-327 -69 c-7 -6 -47 29 -47 42 0 6 10 15 23 20 20 9 22 7 25 -24 2 -18 1 -35
-1 -38z m-1767 -27 c0 -5 -7 -3 -15 4 -8 7 -12 17 -9 22 7 10 24 -9 24 -26z
m1850 -61 c10 -12 10 -15 0 -15 -7 0 -10 -7 -6 -15 8 -22 -31 -19 -43 3 -18
34 24 57 49 27z m185 5 c-3 -5 -2 -10 2 -10 5 0 14 -9 21 -20 10 -17 10 -20
-3 -20 -8 0 -15 7 -15 15 0 9 -7 18 -15 21 -16 6 -11 24 6 24 6 0 7 -4 4 -10z
m568 -163 l42 -4 -47 -1 -48 -2 2 43 1 42 4 -37 c4 -35 6 -37 46 -41z m-2608
-227 c8 -14 -37 -51 -48 -40 -12 11 10 50 28 50 7 0 17 -5 20 -10z m2198 -423
c12 -2 -30 -5 -95 -6 -80 -1 -118 -5 -120 -13 -3 -8 -11 -7 -28 5 -24 16 -20
17 93 17 l117 0 2 123 2 122 3 -122 c3 -117 5 -122 26 -126z m1167 23 c0 -5
-4 -10 -9 -10 -6 0 -13 5 -16 10 -3 6 1 10 9 10 9 0 16 -4 16 -10z m85 -20 c3
-6 -1 -7 -9 -4 -18 7 -21 14 -7 14 6 0 13 -4 16 -10z m-8 -27 c2 -6 -3 -13
-12 -16 -10 -5 -15 0 -15 14 0 21 21 22 27 2z m-67 -48 c0 -8 -7 -15 -15 -15
-8 0 -15 7 -15 15 0 8 7 15 15 15 8 0 15 -7 15 -15z m100 -17 c0 -6 -7 -5 -15
2 -8 7 -15 17 -15 22 0 6 7 5 15 -2 8 -7 15 -17 15 -22z m-3445 -18 c3 -5 1
-10 -4 -10 -6 0 -11 5 -11 10 0 6 2 10 4 10 3 0 8 -4 11 -10z m3733 -55 c0
-28 -10 -32 -28 -10 -10 12 -9 15 4 15 10 0 14 5 11 10 -3 6 -2 10 3 10 5 0
10 -11 10 -25z m-3438 -55 l0 -60 160 0 c153 0 160 -1 160 -20 0 -11 -6 -20
-12 -20 -9 0 -10 -2 -2 -8 16 -10 14 -89 -2 -121 -12 -23 -12 -27 4 -33 10 -4
1 -7 -25 -7 -24 -1 -43 -5 -43 -11 0 -6 -33 -10 -80 -10 -44 0 -80 4 -80 9 0
6 -12 9 -26 8 -21 -2 -27 3 -31 23 -2 13 -8 29 -13 34 -6 6 -10 25 -10 43 0
29 -3 33 -28 33 -16 0 -34 -8 -42 -20 -10 -14 -16 -16 -22 -7 -13 20 -9 27 12
27 22 0 27 15 8 24 -10 5 -10 7 0 12 7 4 12 27 12 66 0 50 4 63 23 79 12 10
25 18 30 19 4 0 7 -27 7 -60z m2380 20 c0 -29 -4 -40 -15 -40 -11 0 -15 11
-15 40 0 29 4 40 15 40 11 0 15 -11 15 -40z m517 0 c1 0 3 -10 5 -22 2 -14 22
-35 53 -55 58 -38 84 -89 56 -110 -23 -17 -26 -16 -27 10 -1 13 -15 36 -31 53
-16 16 -34 36 -39 44 -5 8 -18 20 -29 26 -11 6 -28 25 -38 42 l-18 31 33 -10
c18 -5 34 -9 35 -9z m383 10 c0 -5 8 -10 18 -10 14 0 15 -2 2 -10 -10 -6 -16
-6 -18 0 -2 6 -10 10 -18 10 -8 0 -14 5 -14 10 0 6 7 10 15 10 8 0 15 -4 15
-10z m80 0 c0 -5 -8 -10 -17 -10 -15 0 -16 2 -3 10 19 12 20 12 20 0z m485
-49 c-3 -6 2 -14 11 -19 20 -11 31 -86 14 -97 -20 -12 -28 7 -33 84 -3 47 -1
68 5 57 5 -9 6 -20 3 -25z m-2885 7 c0 -5 -6 -8 -13 -8 -11 0 -14 -36 -13
-182 l1 -183 -147 4 c-145 3 -148 2 -148 -18 0 -12 -4 -21 -10 -21 -6 0 -10
33 -10 80 0 73 2 80 20 80 13 0 20 7 20 19 0 10 3 46 6 80 6 52 5 61 -10 61
-13 0 -16 10 -16 48 l0 47 160 0 c88 0 160 -3 160 -7z m1236 -8 c21 0 24 -4
24 -40 0 -22 5 -40 10 -40 6 0 10 -18 10 -40 0 -29 -4 -40 -15 -40 -11 0 -15
-11 -15 -40 0 -22 5 -40 10 -40 6 0 10 -9 10 -20 0 -11 -4 -20 -10 -20 -5 0
-10 -9 -10 -20 0 -11 7 -20 15 -20 10 0 15 -10 15 -30 0 -28 -3 -30 -36 -30
-25 0 -44 8 -67 30 -30 28 -31 30 -9 30 15 0 22 6 22 20 0 16 -7 20 -30 20
-23 0 -30 4 -30 20 0 16 7 20 31 20 l30 0 -3 125 c-2 101 0 124 10 120 8 -3
25 -5 38 -5z m131 -282 c-2 -24 -4 -5 -4 42 0 47 2 66 4 43 2 -24 2 -62 0 -85z
m-1747 -39 l0 -80 -27 3 c-28 3 -28 4 -31 81 l-3 77 31 0 30 0 0 -81z m2440
36 c0 -8 -7 -15 -15 -15 -8 0 -15 7 -15 15 0 8 7 15 15 15 8 0 15 -7 15 -15z
m-2781 -145 c-2 -14 1 -35 5 -47 12 -36 -10 -65 -47 -61 l-32 3 -2 65 -2 65
40 0 c37 0 40 -2 38 -25z m2658 -162 c-3 -7 -5 -2 -5 12 0 14 2 19 5 13 2 -7
2 -19 0 -25z m-2337 -143 c0 -9 12 -26 27 -39 l26 -23 -33 -12 c-23 -7 -37 -8
-44 -1 -7 7 -4 10 7 10 10 0 17 8 17 20 0 17 -7 20 -40 20 -22 0 -40 -4 -40
-10 0 -5 -7 -10 -15 -10 -8 0 -15 9 -15 20 0 11 7 20 15 20 8 0 15 5 15 10 0
6 18 10 40 10 29 0 40 -4 40 -15z"/>
<path d="M4960 6350 c0 -36 3 -40 25 -40 23 0 25 4 25 40 0 36 -2 40 -25 40
-22 0 -25 -4 -25 -40z"/>
<path d="M5040 6246 c0 -9 5 -16 10 -16 6 0 10 4 10 9 0 6 -4 13 -10 16 -5 3
-10 -1 -10 -9z"/>
<path d="M5106 6251 c-4 -7 -5 -15 -2 -18 9 -9 19 4 14 18 -4 11 -6 11 -12 0z"/>
<path d="M3920 3210 c0 -18 7 -20 80 -20 73 0 80 2 80 20 0 18 -7 20 -80 20
-73 0 -80 -2 -80 -20z"/>
<path d="M5070 7060 c0 -5 7 -10 15 -10 8 0 15 5 15 10 0 6 -7 10 -15 10 -8 0
-15 -4 -15 -10z"/>
<path d="M4085 7000 c-46 -11 -177 -74 -263 -125 -71 -42 -122 -94 -122 -123
0 -21 90 -18 130 4 14 7 39 20 55 28 17 8 40 26 53 40 32 34 161 86 215 86 48
0 87 30 87 67 0 31 -77 43 -155 23z"/>
<path d="M6265 6820 c3 -5 11 -10 16 -10 6 0 7 5 4 10 -3 6 -11 10 -16 10 -6
0 -7 -4 -4 -10z"/>
<path d="M4090 6805 c0 -8 7 -15 15 -15 8 0 15 7 15 15 0 8 -7 15 -15 15 -8 0
-15 -7 -15 -15z"/>
<path d="M5932 6788 c-14 -14 -16 -48 -3 -48 10 0 26 19 34 43 7 20 -13 23
-31 5z"/>
<path d="M6071 6744 c-10 -12 -10 -19 -2 -27 8 -8 11 -8 11 1 0 9 5 10 17 4
20 -12 63 5 63 25 0 19 -71 16 -89 -3z"/>
<path d="M4585 6720 c-3 -5 -2 -10 4 -10 5 0 13 5 16 10 3 6 2 10 -4 10 -5 0
-13 -4 -16 -10z"/>
<path d="M3344 6657 c-84 -45 -104 -58 -171 -108 -93 -71 -183 -184 -247 -311
-16 -32 -37 -66 -47 -77 -20 -21 -25 -76 -10 -99 17 -27 55 -9 79 38 12 25 35
63 51 85 15 22 32 51 36 65 8 29 231 250 289 287 38 25 39 25 83 8 42 -16 46
-16 78 1 55 29 57 82 5 109 -51 26 -101 27 -146 2z"/>
<path d="M6736 6605 c-10 -27 17 -68 96 -147 43 -43 78 -85 78 -93 0 -9 8 -19
18 -22 42 -16 132 -127 132 -163 0 -21 9 -33 32 -49 l33 -20 22 21 c28 26 30
67 5 99 -10 13 -28 44 -40 69 -12 25 -57 80 -99 122 -203 203 -198 198 -236
198 -22 0 -37 -6 -41 -15z"/>
<path d="M4395 6600 c-3 -5 1 -10 10 -10 9 0 13 5 10 10 -3 6 -8 10 -10 10 -2
0 -7 -4 -10 -10z"/>
<path d="M3418 6494 c-19 -10 -28 -23 -29 -42 -2 -46 2 -77 12 -86 5 -6 9 -24
9 -42 0 -39 30 -78 76 -100 34 -16 34 -16 63 15 17 19 39 31 54 31 32 0 38 17
28 77 -6 38 -17 58 -52 94 -70 72 -105 84 -161 53z"/>
<path d="M6802 6333 c-13 -13 -28 -23 -35 -23 -18 0 -33 -30 -41 -77 l-7 -41
47 -16 c82 -28 120 -20 176 36 16 16 17 24 8 60 -7 22 -22 50 -34 61 -32 28
-85 28 -114 0z"/>
<path d="M7187 6049 c-25 -14 -23 -75 3 -89 13 -7 20 -21 20 -40 0 -16 6 -33
13 -37 11 -7 19 -20 51 -78 6 -11 16 -27 22 -35 7 -8 15 -26 18 -40 24 -85 51
-103 82 -55 23 35 12 68 -64 209 -86 159 -109 185 -145 165z"/>
<path d="M6703 6022 c-3 -15 -1 -27 7 -32 7 -4 10 -17 8 -28 -4 -15 0 -22 15
-26 24 -6 38 11 49 59 8 38 -6 56 -44 53 -21 -2 -30 -9 -35 -26z"/>
<path d="M2659 5676 c-14 -13 -32 -39 -39 -57 -8 -19 -26 -52 -41 -75 -15 -22
-34 -62 -42 -90 -65 -210 -73 -264 -44 -308 24 -36 35 -33 47 17 6 23 24 83
41 132 17 50 38 115 46 145 8 30 22 64 32 75 52 60 92 128 89 153 -4 38 -53
42 -89 8z"/>
<path d="M7390 5549 c0 -5 5 -7 10 -4 6 3 10 8 10 11 0 2 -4 4 -10 4 -5 0 -10
-5 -10 -11z"/>
<path d="M7453 5523 c-15 -6 -18 -109 -4 -118 6 -3 13 -27 17 -53 3 -26 11
-56 17 -67 13 -25 26 -75 36 -145 24 -155 65 -314 87 -339 7 -8 20 -11 30 -7
15 6 16 18 10 124 -7 126 -16 189 -48 322 -37 156 -63 226 -101 268 -21 23
-24 24 -44 15z"/>
<path d="M7246 5513 c-7 -8 12 -43 24 -43 15 0 12 37 -4 43 -8 3 -17 3 -20 0z"/>
<path d="M2911 5254 c0 -11 3 -14 6 -6 3 7 2 16 -1 19 -3 4 -6 -2 -5 -13z"/>
<path d="M7520 4779 c0 -5 5 -7 10 -4 6 3 10 8 10 11 0 2 -4 4 -10 4 -5 0 -10
-5 -10 -11z"/>
<path d="M2419 4750 c-31 -42 -55 -161 -64 -321 -7 -122 -1 -159 26 -159 35 0
50 41 43 112 -5 49 -2 80 15 139 21 76 25 138 13 219 l-7 45 -26 -35z"/>
<path d="M7576 4722 c-3 -6 -1 -14 5 -17 15 -10 25 3 12 16 -7 7 -13 7 -17 1z"/>
<path d="M7112 4618 c-12 -43 -6 -51 24 -32 26 18 30 34 12 52 -19 19 -27 14
-36 -20z"/>
<path d="M7366 4619 c-10 -6 -33 -9 -52 -6 -21 4 -37 1 -44 -8 -6 -7 -33 -22
-60 -34 -42 -18 -50 -26 -56 -55 -4 -27 -1 -41 17 -65 12 -17 29 -31 36 -31 7
0 15 0 18 0 2 -1 30 -12 60 -26 l56 -24 47 25 c26 14 54 25 63 25 20 0 49 66
49 112 0 24 -9 39 -37 65 -39 34 -65 40 -97 22z"/>
<path d="M7659 4471 c-24 -19 -24 -21 -21 -178 2 -87 7 -161 10 -165 15 -15
62 -16 77 -2 22 23 22 310 -1 342 -19 27 -35 28 -65 3z"/>
<path d="M7331 4261 c-60 -10 -93 -48 -87 -99 7 -52 36 -86 82 -93 38 -7 141
7 157 21 13 11 25 113 17 136 -5 12 -15 24 -23 27 -29 11 -103 15 -146 8z"/>
<path d="M7556 4072 c-2 -4 -1 -14 3 -21 6 -9 10 -7 14 8 5 20 -7 29 -17 13z"/>
<path d="M2424 3987 c-10 -6 -22 -15 -26 -21 -4 -6 -8 -89 -8 -185 0 -152 3
-185 24 -265 13 -50 27 -118 31 -151 4 -33 13 -78 20 -100 42 -129 106 -338
118 -390 28 -115 37 -135 114 -251 58 -87 85 -124 124 -169 24 -26 30 -28 55
-20 43 15 42 41 0 62 -20 9 -36 23 -36 31 0 7 -12 34 -27 60 -16 26 -40 78
-56 116 -15 38 -36 80 -46 95 -10 14 -21 42 -24 61 -9 59 -58 224 -71 240 -30
35 -91 253 -100 357 -3 35 -13 80 -21 100 -12 28 -16 68 -15 148 3 239 1 269
-18 282 -13 8 -24 8 -38 0z"/>
<path d="M7593 3888 c-11 -13 -23 -32 -27 -43 -14 -38 -29 -130 -31 -190 -1
-33 -7 -80 -13 -105 -6 -25 -20 -81 -30 -125 -11 -44 -31 -103 -45 -132 -18
-35 -27 -68 -27 -100 0 -28 -7 -58 -16 -71 -9 -13 -18 -42 -20 -65 -6 -61 -12
-84 -27 -99 -7 -7 -18 -33 -25 -58 -7 -25 -15 -52 -18 -62 -8 -24 29 -42 57
-27 26 13 96 162 110 232 5 29 16 66 24 82 52 111 87 226 95 310 4 50 15 110
23 135 55 168 64 278 24 328 -14 18 -31 15 -54 -10z"/>
<path d="M2963 3670 c0 -47 2 -66 4 -42 2 23 2 61 0 85 -2 23 -4 4 -4 -43z"/>
<path d="M7180 3581 c0 -6 5 -13 10 -16 6 -3 10 1 10 9 0 9 -4 16 -10 16 -5 0
-10 -4 -10 -9z"/>
<path d="M6713 3138 c-15 -25 -11 -38 13 -38 28 0 44 28 23 41 -19 12 -26 11
-36 -3z"/>
<path d="M3020 3101 c0 -6 5 -13 10 -16 6 -3 10 1 10 9 0 9 -4 16 -10 16 -5 0
-10 -4 -10 -9z"/>
<path d="M7108 3050 c-7 -24 -3 -38 8 -28 3 4 4 17 2 30 l-3 23 -7 -25z"/>
<path d="M7216 2971 c-3 -5 -15 -7 -26 -4 -15 4 -20 0 -20 -15 0 -11 8 -22 20
-25 22 -6 50 16 50 39 0 16 -16 19 -24 5z"/>
<path d="M6363 2890 c1 -11 7 -20 14 -20 11 0 11 5 3 20 -6 11 -13 20 -15 20
-2 0 -3 -9 -2 -20z"/>
<path d="M6743 2813 c9 -2 23 -2 30 0 6 3 -1 5 -18 5 -16 0 -22 -2 -12 -5z"/>
<path d="M7205 2604 c-62 -48 -97 -91 -131 -157 -41 -79 -36 -97 26 -97 30 0
43 6 59 26 12 15 21 32 21 38 0 6 9 19 20 28 11 10 22 30 26 45 4 15 13 37 20
48 18 25 18 81 1 88 -7 2 -26 -6 -42 -19z"/>
<path d="M3381 2534 c0 -11 3 -14 6 -6 3 7 2 16 -1 19 -3 4 -6 -2 -5 -13z"/>
<path d="M3198 2486 c-85 -78 -99 -118 -50 -156 34 -28 81 -23 160 17 l57 28
3 62 3 62 -38 17 c-64 27 -75 24 -135 -30z"/>
<path d="M6585 2505 c-32 -31 -34 -100 -4 -161 40 -83 169 -125 219 -71 18 19
21 31 18 81 -4 55 -8 62 -43 93 -22 19 -58 39 -82 44 -23 6 -48 17 -54 25 -16
20 -26 18 -54 -11z"/>
<path d="M3655 2360 c-7 -12 2 -30 16 -30 5 0 9 9 9 20 0 21 -15 27 -25 10z"/>
<path d="M6334 2337 c-23 -12 -64 -58 -64 -71 0 -17 51 -116 59 -116 5 0 22
-13 38 -30 15 -16 32 -30 36 -30 5 0 25 -7 43 -16 34 -16 36 -16 62 8 15 14
36 29 47 32 11 4 28 13 38 20 15 12 16 18 5 42 -16 38 -106 133 -138 145 -46
19 -107 26 -126 16z"/>
<path d="M3474 2309 c-64 -50 -96 -135 -74 -193 10 -28 12 -29 69 -23 32 4 65
9 75 13 18 7 73 116 82 164 5 21 0 32 -21 49 -40 30 -84 27 -131 -10z"/>
<path d="M6863 2278 c-24 -16 -43 -34 -43 -39 0 -5 -8 -9 -17 -9 -9 0 -42 -26
-72 -58 -31 -32 -74 -70 -96 -84 -22 -14 -63 -47 -92 -74 -73 -69 -129 -114
-140 -114 -13 0 -99 -45 -143 -75 -19 -14 -62 -34 -94 -45 -100 -34 -151 -88
-113 -117 6 -6 31 -13 54 -17 37 -5 52 -1 130 40 48 26 99 52 113 59 14 8 48
24 75 36 28 12 68 37 90 54 22 18 51 38 65 45 40 21 93 67 229 198 70 68 132
127 138 130 5 4 14 21 20 38 23 67 -31 84 -104 32z"/>
<path d="M5930 2250 c0 -11 5 -20 10 -20 6 0 10 9 10 20 0 11 -4 20 -10 20 -5
0 -10 -9 -10 -20z"/>
<path d="M3194 2075 c-10 -24 16 -74 50 -97 17 -12 42 -34 56 -50 32 -34 123
-101 271 -197 184 -120 220 -141 248 -147 14 -3 40 -12 56 -19 69 -29 221 -22
232 12 6 17 -69 53 -109 53 -18 0 -57 11 -86 25 -30 14 -58 25 -62 25 -5 0
-56 35 -115 78 -58 42 -136 95 -173 117 -37 22 -81 50 -97 61 -17 12 -50 31
-75 44 -25 12 -70 42 -102 66 -59 46 -85 54 -94 29z"/>
<path d="M4893 1913 c-7 -2 -13 -15 -13 -27 0 -12 -5 -27 -10 -32 -27 -27 -18
-231 12 -271 9 -12 88 -11 126 1 29 9 40 45 48 148 6 91 6 96 -17 117 -13 13
-41 30 -61 38 -21 8 -38 19 -38 24 0 10 -27 11 -47 2z"/>
<path d="M4560 1891 c0 -14 -9 -25 -25 -31 -24 -9 -27 -16 -40 -90 -18 -99
-17 -135 5 -163 18 -23 29 -27 73 -27 29 0 58 4 65 9 19 12 32 74 32 156 0 99
-5 112 -48 122 -21 5 -37 15 -37 23 0 7 -6 15 -12 18 -8 2 -13 -5 -13 -17z"/>
<path d="M4463 1530 c-51 -21 -11 -89 66 -115 27 -9 88 -20 135 -25 47 -5 91
-12 96 -15 6 -4 73 -11 148 -16 75 -4 171 -14 212 -20 59 -9 86 -9 125 1 28 7
106 16 175 20 132 8 226 36 270 80 11 11 30 20 43 20 32 0 60 23 56 46 -7 32
-78 32 -113 -1 -18 -16 -34 -24 -46 -20 -10 3 -47 -2 -82 -11 -50 -13 -82 -15
-153 -9 -49 5 -119 7 -155 5 -99 -6 -270 1 -519 20 -104 7 -140 14 -166 30
-35 22 -57 24 -92 10z"/>
<path d="M628 7447 c-58 -47 -148 -305 -168 -483 -21 -190 -9 -549 19 -577 28
-28 34 14 37 285 4 343 26 479 107 649 46 95 51 114 34 127 -10 9 -18 9 -29
-1z"/>
<path d="M283 6813 c-26 -48 -33 -86 -34 -203 -1 -121 6 -152 35 -148 20 3 21
11 28 128 3 69 12 148 19 177 20 86 -10 114 -48 46z"/>
</g>
</svg>
